<?xml version="1.0" standalone="no"?>
<!DOCTYPE svg PUBLIC "-//W3C//DTD SVG 1.1//EN"
"http://www.w3.org/Graphics/SVG/1.1/DTD/svg11.dtd">

<svg width="226" height="195" view_box="0 0 226 195"
xmlns="http://www.w3.org/2000/svg"
xmlns:link="http://www.w3.org/1999/xlink">\n\n<desc>Généré par Mocodo 2.3.7 le Sat, 26 Mar 2022 10:56:46</desc>

<rect id="frame" x="0" y="0" width="226" height="195" fill="#ffffff" stroke="none" stroke-width="0"/>

<!-- Association POSSEDE -->
<line x1="165" y1="60" x2="46" y2="161" stroke="#878787" stroke-width="2"/>
<text x="123.685043188" y="111" fill="#b2182b" font-family="Verdana" font-size="12">0,N</text>
<line x1="46" y1="60" x2="46" y2="161" stroke="#878787" stroke-width="2"/>
<text x="51.0" y="128" fill="#b2182b" font-family="Verdana" font-size="12">1,1</text>
<g id="association-POSSEDE">
	<path d="M 69 136 a 14 14 90 0 1 14 14 V 161 h -74 V 150 a 14 14 90 0 1 14 -14" fill="#bababa" stroke="#bababa" stroke-width="0"/>
	<path d="M 83 161.0 v 11 a 14 14 90 0 1 -14 14 H 23 a 14 14 90 0 1 -14 -14 V 161.0 H 74" fill="#e0e0e0" stroke="#e0e0e0" stroke-width="0"/>
	<rect x="9" y="136" width="74" height="50" fill="none" rx="14" stroke="#878787" stroke-width="2"/>
	<line x1="9" y1="161" x2="83" y2="161" stroke="#878787" stroke-width="1"/>
	<text x="16" y="153.7" fill="#000000" font-family="Verdana" font-size="12">POSSEDE</text>
</g>

<!-- Entity ROLE -->
<g id="entity-ROLE">
	<g id="frame-ROLE">
		<rect x="113" y="26" width="104" height="25" fill="#f4a582" stroke="#f4a582" stroke-width="0"/>
		<rect x="113" y="51.0" width="104" height="43" fill="#fddbc7" stroke="#fddbc7" stroke-width="0"/>
		<rect x="113" y="26" width="104" height="68" fill="none" stroke="#d6604d" stroke-width="2"/>
		<line x1="113" y1="51" x2="217" y2="51" stroke="#d6604d" stroke-width="1"/>
	</g>
	<text x="148" y="43.7" fill="#000000" font-family="Verdana" font-size="12">ROLE</text>
	<text x="118" y="68.8" fill="#000000" font-family="Verdana" font-size="12">code role</text>
	<line x1="118" y1="71" x2="174" y2="71" stroke="#000000" stroke-width="1"/>
	<text x="118" y="85.8" fill="#000000" font-family="Verdana" font-size="12">role description</text>
</g>

<!-- Entity USER -->
<g id="entity-USER">
	<g id="frame-USER">
		<rect x="11" y="9" width="70" height="25" fill="#f4a582" stroke="#f4a582" stroke-width="0"/>
		<rect x="11" y="34.0" width="70" height="77" fill="#fddbc7" stroke="#fddbc7" stroke-width="0"/>
		<rect x="11" y="9" width="70" height="102" fill="none" stroke="#d6604d" stroke-width="2"/>
		<line x1="11" y1="34" x2="81" y2="34" stroke="#d6604d" stroke-width="1"/>
	</g>
	<text x="29" y="26.7" fill="#000000" font-family="Verdana" font-size="12">USER</text>
	<text x="16" y="51.7" fill="#000000" font-family="Verdana" font-size="12">code user</text>
	<line x1="16" y1="54" x2="76" y2="54" stroke="#000000" stroke-width="1"/>
	<text x="16" y="68.8" fill="#000000" font-family="Verdana" font-size="12">name</text>
	<text x="16" y="85.8" fill="#000000" font-family="Verdana" font-size="12">password</text>
	<text x="16" y="102.8" fill="#000000" font-family="Verdana" font-size="12">email</text>
</g>
</svg>